<svg width="42" height="42" viewBox="0 0 42 42" fill="none" xmlns="http://www.w3.org/2000/svg">
<path d="M25.3621 15.3156C24.5033 15.3156 23.8674 15.5322 23.3696 15.8058C23.2898 15.5221 23.0276 15.3143 22.7185 15.3764H18.9388C18.5651 15.3143 18.2624 15.6171 18.3777 16.0097V29.9431C18.2624 30.2977 18.5651 30.6017 18.9388 30.5764H22.7185C23.0922 30.6017 23.3949 30.2977 23.3949 29.9241L23.3937 21.5033C23.3924 21.4995 23.3785 21.0967 23.6331 20.8193C23.837 20.5989 24.1879 20.4861 24.673 20.4861C25.4811 20.4861 25.8409 20.8167 25.9751 21.5565V29.9241C25.8421 30.2977 26.1449 30.6017 26.5185 30.5764H30.5022C30.8759 30.6017 31.1786 30.2977 31.0443 29.9241V21.2753C31.1773 16.8774 28.0449 15.3156 25.3621 15.3156ZM29.8245 29.3097H27.1949V21.5565C27.1949 20.0605 26.2285 19.1333 24.6743 19.1333C23.7952 19.1333 23.1112 19.3917 22.64 19.9009C21.9851 20.6103 22.0358 21.5096 22.1764 21.7097V29.3097H19.6152V16.6684H22.0421V17.094C22.0411 17.2208 22.0759 17.3453 22.1425 17.4532C22.2091 17.5611 22.3048 17.648 22.4186 17.7039C22.5323 17.7599 22.6596 17.7826 22.7857 17.7695C22.9118 17.7564 23.0316 17.708 23.1315 17.6298L23.3088 17.493C23.8218 17.0889 24.3525 16.6697 25.3633 16.6697C26.4096 16.6697 29.8258 17.0028 29.8258 21.2765L29.8245 29.3097ZM14.5764 9C13.1552 9 12 10.1552 12 11.5764C12 12.9976 13.1552 14.1528 14.5764 14.1528C15.9976 14.1528 17.1528 12.9976 17.1528 11.5764C17.1528 10.1552 15.9976 9 14.5764 9ZM14.5764 12.8C13.9025 12.8 13.3528 12.2503 13.3528 11.5764C13.3528 10.9025 13.9025 10.3528 14.5764 10.3528C15.2503 10.3528 15.8 10.9025 15.8 11.5764C15.8 12.2503 15.2503 12.8 14.5764 12.8ZM16.3852 15.3143H12.6257C12.2521 15.3143 11.9493 15.6171 12.0431 16.0097V29.9431C11.9493 30.2977 12.2521 30.6017 12.6257 30.5764H16.3852C16.7589 30.6017 17.0616 30.2977 17.0616 29.9241V15.9907C17.0616 15.8113 16.9903 15.6393 16.8635 15.5124C16.7366 15.3856 16.5646 15.3143 16.3852 15.3143ZM15.8431 29.3097H13.3021V16.6684H15.8431V29.3097Z" fill="black" stroke="black" stroke-width="0.6"/>
<path d="M21 40C31.4937 40 40 31.4937 40 21C40 10.5063 31.4937 2 21 2C10.5063 2 2 10.5063 2 21C2 31.4937 10.5063 40 21 40Z" stroke="black" stroke-width="2.5" stroke-linecap="round" stroke-linejoin="round"/>
</svg>
